<svg clip-rule="evenodd" fill-rule="evenodd" stroke-linejoin="round" stroke-miterlimit="2" viewBox="0 0 24 24" xmlns="http://www.w3.org/2000/svg"><path d="m22 5c0-.478-.379-1-1-1h-18c-.62 0-1 .519-1 1v14c0 .621.52 1 1 1h18c.478 0 1-.379 1-1zm-7.565 3.522h-1.218c-.414 0-.75-.336-.75-.75s.336-.75.75-.75h3.033c.414 0 .75.336.75.75v3.05c0 .414-.336.75-.75.75s-.75-.336-.75-.75v-1.244l-5.918 5.922h1.219c.414 0 .75.336.75.75s-.336.75-.75.75c-.715 0-2.319 0-3.033 0-.415 0-.75-.336-.75-.75 0-.715 0-2.335 0-3.05 0-.414.335-.75.75-.75.414 0 .75.336.75.75v1.243z" fill-rule="nonzero"/></svg>