<svg version="1.1" id="Layer_1" xmlns="http://www.w3.org/2000/svg" xmlns:xlink="http://www.w3.org/1999/xlink" x="0px" y="0px"
	 width="100%" viewBox="0 0 256 256" enable-background="new 0 0 256 256" xml:space="preserve">
<path fill="#000000" opacity="1.000000" stroke="none" 
	d="
M242.230240,121.134995 
	C244.375107,147.409409 238.703476,171.395187 223.692078,192.534348 
	C202.900558,221.813095 174.312225,237.210968 138.183823,238.376648 
	C89.407524,239.950439 43.799057,206.548569 32.192780,156.082809 
	C19.319492,100.107971 52.338352,44.859318 106.901421,29.544226 
	C159.141205,14.881243 212.039612,41.065132 233.228577,88.090858 
	C237.917786,98.497879 240.645615,109.425179 242.230240,121.134995 
M65.235245,160.877182 
	C61.631252,175.720276 59.549644,174.562653 75.780296,178.773926 
	C76.420578,178.940033 77.078781,179.039322 77.715141,179.217850 
	C80.036690,179.869217 81.467072,178.767441 81.485245,176.609116 
	C81.528984,171.415619 84.020424,166.775757 84.729019,161.708466 
	C80.157990,160.284225 75.687614,159.114883 71.394707,157.479660 
	C68.229706,156.274063 66.352249,156.833908 65.235245,160.877182 
M143.245667,198.251846 
	C140.784119,195.866211 138.322571,193.480576 135.987061,191.217087 
	C133.941040,193.175491 132.004059,194.973724 130.128784,196.834167 
	C122.084366,204.815109 122.197090,206.218048 131.407974,213.314575 
	C132.195419,213.921265 133.032135,214.464569 133.852417,215.027924 
	C135.413879,216.100327 136.966263,216.002213 138.478561,214.936874 
	C142.826233,211.874115 146.576218,208.270264 149.354462,203.493042 
	C147.263000,201.714706 145.510162,200.224274 143.245667,198.251846 
M187.526505,101.269127 
	C192.221771,105.283493 198.512314,104.963013 203.873428,107.202187 
	C205.095871,107.712761 205.523331,105.926918 206.034164,104.913124 
	C212.453995,92.172615 209.597244,86.882271 195.341171,85.128418 
	C195.012650,85.087997 194.679321,85.047752 194.362473,84.957466 
	C191.661530,84.187866 190.517548,85.736443 190.485214,88.007332 
	C190.422302,92.424942 188.583801,96.372208 187.526505,101.269127 
M77.139389,104.542549 
	C79.447990,103.384926 82.400818,103.811852 84.616127,101.471565 
	C83.804932,98.541733 83.235275,95.433678 82.065491,92.570854 
	C81.010506,89.988953 83.481972,85.675835 79.509315,84.912720 
	C76.655914,84.364609 73.372581,85.745399 70.346123,86.519997 
	C68.442253,87.007278 66.636887,87.916054 64.829277,88.729004 
	C63.766102,89.207153 62.499699,89.915436 62.634624,91.178535 
	C63.196945,96.442757 63.539089,102.149773 66.873131,106.222084 
	C69.313049,109.202293 72.733040,104.906685 75.880432,104.801109 
	C76.043381,104.795654 76.204536,104.736450 77.139389,104.542549 
M175.865448,185.943100 
	C172.537476,185.008759 169.209503,184.074432 165.619263,183.066467 
	C164.514801,187.034470 163.614517,190.889740 162.362961,194.627380 
	C160.209747,201.057770 160.413757,201.602203 166.951874,203.491470 
	C177.937790,206.665970 180.504730,205.096542 182.618607,193.912781 
	C183.938660,186.928879 183.918930,186.903061 175.865448,185.943100 
M194.054413,159.722778 
	C191.965790,160.619141 189.371521,160.199753 187.508301,162.303299 
	C188.089432,167.124420 190.573166,171.655640 190.604630,176.714142 
	C190.612610,177.995789 191.413025,179.443726 193.126663,179.239746 
	C198.438141,178.607529 204.085953,178.027573 208.109177,174.444366 
	C211.232178,171.662933 207.934326,167.644058 207.756363,164.162567 
	C207.747910,163.997025 207.722534,163.830582 207.687317,163.668411 
	C206.101898,156.366486 205.470062,156.005264 198.642899,158.364731 
	C197.388306,158.798309 196.090347,159.106430 194.054413,159.722778 
M183.040863,75.966255 
	C183.274261,70.874092 181.802689,66.175995 179.716705,61.622238 
	C178.926666,59.897556 178.044998,58.347118 175.682098,58.757519 
	C171.436371,59.494946 167.183075,60.160877 163.186569,61.904125 
	C161.521912,62.630241 160.290375,63.388134 161.016068,65.594986 
	C162.661499,70.598633 164.170731,75.647072 165.879715,81.141426 
	C171.263168,78.572266 177.082047,78.195465 183.040863,75.966255 
M66.927559,121.561310 
	C65.510551,119.437309 63.990540,118.829895 61.575722,120.440224 
	C50.537514,127.801117 50.306305,135.196533 61.008167,142.995667 
	C61.409180,143.287918 61.814018,143.575073 62.220921,143.859085 
	C63.487217,144.742905 64.769409,144.761017 65.772797,143.561478 
	C69.238762,139.417984 73.110069,135.652542 77.359688,131.885300 
	C73.745659,128.344452 70.558655,125.221985 66.927559,121.561310 
M91.402351,186.641769 
	C89.756058,187.161819 88.326263,187.668793 88.725540,190.013229 
	C89.478951,194.437134 90.552429,198.742813 92.484184,202.803009 
	C93.232864,204.376587 94.235580,205.585419 96.302292,205.253998 
	C100.556099,204.571899 104.783829,203.814499 108.745422,202.024780 
	C110.312653,201.316742 111.730965,200.611526 110.991699,198.352539 
	C109.358315,193.361420 107.864876,188.324478 106.226997,183.023514 
	C101.467354,184.376862 96.990715,186.207611 91.402351,186.641769 
M90.550522,66.126503 
	C90.029396,68.728706 89.596237,71.352638 88.960381,73.926498 
	C88.413116,76.141777 89.551567,77.315697 91.395332,77.384605 
	C96.421616,77.572456 101.000130,79.862244 105.797287,80.465866 
	C107.496773,78.707497 107.480171,76.604225 108.054024,74.723999 
	C108.685005,72.656578 109.029442,70.433289 110.028328,68.560371 
	C112.317108,64.268906 110.666885,62.123558 106.491882,61.002480 
	C104.726967,60.528561 102.988556,59.940300 101.206131,59.549950 
	C93.593506,57.882771 93.589149,57.902649 90.550522,66.126503 
M199.372086,136.171158 
	C201.385880,138.373978 203.388474,140.587173 205.418594,142.774841 
	C206.315781,143.741653 207.318222,145.091934 208.754715,144.278137 
	C213.630478,141.515930 217.286255,137.486267 219.905014,132.561569 
	C220.197037,132.012405 219.895584,130.872375 219.484421,130.268433 
	C216.394226,125.729202 212.638458,121.856972 209.130768,119.517334 
	C204.496857,123.542099 200.371521,127.108078 196.278915,130.711227 
	C195.941345,131.008438 195.825729,131.557724 195.566391,132.070023 
	C196.146530,133.758865 197.724213,134.525146 199.372086,136.171158 
M147.896011,61.443398 
	C148.524292,60.587059 148.934509,59.597862 148.246872,58.686821 
	C144.924011,54.284409 141.252884,48.544453 136.124832,48.330524 
	C131.153015,48.123104 127.583473,53.919811 124.328720,58.138477 
	C123.428131,59.305775 123.137688,60.572460 124.345154,61.713127 
	C128.174881,65.330994 132.037231,68.914330 136.200043,72.803497 
	C139.715088,68.665947 143.439209,65.161781 147.896011,61.443398 
M178.179016,162.031525 
	C173.390427,161.060226 168.601822,160.088913 163.761124,159.107040 
	C163.025467,172.996002 170.444885,180.352081 183.137344,178.539703 
	C182.893402,172.879089 181.766815,167.476700 178.179016,162.031525 
M92.861572,163.288574 
	C90.582123,168.232452 88.927277,173.331558 88.691818,179.116241 
	C94.399582,179.264206 99.312325,177.426147 104.186569,175.464294 
	C105.280098,175.024170 106.262344,174.270935 106.488876,173.029449 
	C107.336082,168.386398 108.112549,163.730453 109.046547,158.320526 
	C103.638412,161.005188 98.034737,159.984009 92.861572,163.288574 
M204.430588,79.628632 
	C205.682327,79.677856 206.915756,80.747726 208.187927,79.743431 
	C208.007706,66.896088 199.165314,58.350613 187.998474,60.149590 
	C189.113892,69.922401 190.264832,79.686882 204.430588,79.628632 
M174.597336,86.105537 
	C165.883423,88.934441 162.352737,95.072258 164.282150,104.872238 
	C168.982346,102.927666 175.182175,104.738892 178.576309,100.950821 
	C182.322891,96.769386 183.307495,90.724739 183.076096,84.412666 
	C180.172440,84.950783 177.759445,85.397964 174.597336,86.105537 
M83.635712,200.401855 
	C82.641281,197.234116 81.526329,194.099091 81.608017,190.697052 
	C81.646751,189.083847 81.087433,187.574280 79.400398,187.181564 
	C74.197563,185.970337 68.956390,184.923782 63.567226,183.778656 
	C64.682907,196.885559 69.433746,202.177963 81.066368,204.320877 
	C84.349144,204.925629 84.502800,203.582092 83.635712,200.401855 
M119.907280,195.732178 
	C123.889885,193.202362 126.959923,189.729355 129.797394,186.040268 
	C130.576294,185.027603 131.696854,183.963913 131.172852,182.493973 
	C129.587677,178.047104 127.907631,173.634079 126.215988,169.077026 
	C122.731018,171.947205 119.562241,174.578659 116.365654,177.175903 
	C115.449165,177.920593 114.364220,178.649750 114.452515,179.917419 
	C114.848869,185.607864 114.885536,191.436157 119.907280,195.732178 
M73.666992,77.833763 
	C76.364258,77.430321 80.352531,78.311066 80.961227,74.994148 
	C81.893539,69.913811 83.723480,64.951195 84.302635,59.658157 
	C70.501755,60.385353 62.171898,69.117500 64.281410,80.417816 
	C67.157448,79.600914 70.005035,78.792084 73.666992,77.833763 
M86.002151,126.877754 
	C90.273506,125.289230 94.544861,123.700714 99.621483,121.812714 
	C94.362091,118.532776 93.151215,111.486755 87.426186,110.650620 
	C82.051384,109.865646 76.489021,111.658279 71.247040,115.048813 
	C75.673988,120.103577 79.102287,125.205162 86.002151,126.877754 
M154.720596,193.837143 
	C155.668594,190.476822 156.790710,187.152481 157.495667,183.741928 
	C157.883652,181.864853 158.325516,179.603012 156.599960,178.070587 
	C153.284653,175.126358 149.818542,172.351944 146.321259,169.428741 
	C143.893906,171.710373 144.575516,174.833725 143.125351,176.992325 
	C139.456161,182.453949 141.663101,186.607346 145.861984,190.414017 
	C147.588821,191.979553 149.278748,193.585815 151.006516,195.150299 
	C152.440262,196.448486 153.651871,196.401489 154.720596,193.837143 
M127.480301,91.637268 
	C128.476074,88.828728 129.396088,85.989990 130.498825,83.224098 
	C131.070175,81.791077 131.704437,80.518242 130.614426,79.048065 
	C127.363274,74.663055 123.877419,70.542419 118.706291,67.576424 
	C115.965073,72.787361 114.263458,77.999474 114.489502,83.501320 
	C114.653946,87.503983 119.159332,88.268097 121.466759,90.734970 
	C122.372375,91.703178 123.378944,92.581474 124.378151,93.456635 
	C126.091522,94.957321 126.604813,93.468102 127.480301,91.637268 
M79.077690,140.580215 
	C76.597130,143.314377 73.197029,145.329926 71.956429,149.319702 
	C76.690948,152.215576 81.704254,153.156189 86.848541,153.642181 
	C88.255867,153.775146 89.428543,153.336502 90.363922,152.190918 
	C93.160118,148.766281 96.001610,145.378616 99.000862,141.765152 
	C95.625702,140.612320 92.442177,139.988663 89.741104,138.493439 
	C85.713867,136.264099 82.553497,136.896500 79.077690,140.580215 
M44.692131,115.796394 
	C45.567692,118.191132 45.150997,121.148315 47.894592,122.969894 
	C51.562531,119.690666 55.216335,116.387581 58.917957,113.138985 
	C59.912598,112.266060 60.256580,111.338219 59.849186,110.072586 
	C58.255291,105.120956 56.687286,100.160988 54.906147,94.564697 
	C48.671021,100.491180 41.494061,105.100159 44.692131,115.796394 
M212.830872,112.951027 
	C216.673965,116.286575 220.517044,119.622116 224.382446,122.977028 
	C231.123764,112.358437 227.627533,100.107750 216.340302,95.310738 
	C216.230728,101.397614 212.254181,106.432327 212.830872,112.951027 
M199.802155,115.923393 
	C200.129089,114.986259 199.781815,114.222412 198.964096,113.847687 
	C194.548401,111.824173 189.920807,110.603912 185.050018,110.393188 
	C183.854370,110.341446 182.740082,110.495529 181.912628,111.526764 
	C179.160034,114.957283 176.388763,118.372826 173.575607,121.854820 
	C186.570007,128.808060 189.125977,128.385361 198.298615,118.055092 
	C198.738876,117.559265 199.130630,117.020386 199.802155,115.923393 
M124.143791,41.869827 
	C111.064911,38.715775 104.813911,41.021236 99.250389,51.240288 
	C104.300758,52.773899 109.312958,54.277805 114.311554,55.825623 
	C115.684845,56.250870 116.464371,55.516319 117.290283,54.623329 
	C120.097504,51.588135 122.888710,48.534752 125.792793,45.593739 
	C127.683769,43.678722 126.739105,42.811699 124.143791,41.869827 
M92.036621,85.127159 
	C90.946442,85.030258 89.799858,84.232834 88.691170,85.515556 
	C88.968391,89.197281 89.701920,92.879677 91.121254,96.433784 
	C91.975517,98.572922 92.288116,101.542892 94.574669,102.184586 
	C98.924477,103.405312 103.503975,103.807579 107.999359,104.551590 
	C109.146019,92.874474 106.005066,88.147682 95.735252,85.608727 
	C94.779182,85.372368 93.770821,85.347580 92.036621,85.127159 
M157.616486,81.566399 
	C156.751007,76.887917 156.173691,72.114723 153.146698,67.602280 
	C148.238983,70.671654 144.628983,74.649498 141.511627,79.146240 
	C140.907928,80.017067 140.783127,80.946480 141.165375,81.973892 
	C142.753342,86.242004 144.311050,90.521385 145.924118,94.917274 
	C149.311844,92.099487 152.324356,89.505058 155.439362,87.040131 
	C157.006546,85.800003 157.882172,84.375793 157.616486,81.566399 
M207.216064,183.753891 
	C203.002289,184.577759 199.006638,186.313828 194.643265,186.577652 
	C193.005463,186.676712 191.215286,187.379715 190.805008,189.254791 
	C189.728699,194.173691 188.842499,199.134201 187.866333,204.151154 
	C201.392212,203.769516 209.355698,195.549088 207.216064,183.753891 
M215.008179,149.444351 
	C213.756287,150.626266 211.170074,151.238617 212.070480,153.507675 
	C214.046677,158.487839 215.176590,163.755829 216.723114,169.131119 
	C229.046066,160.212921 231.496567,150.491058 224.185944,140.822845 
	C221.292953,143.557831 218.416611,146.277054 215.008179,149.444351 
M179.182617,139.801331 
	C177.402466,140.520844 175.227646,140.351944 173.882904,142.076523 
	C181.580261,154.439667 190.520721,156.763077 199.908783,148.891968 
	C194.991409,139.095856 188.788315,136.196198 179.182617,139.801331 
M158.716217,208.342728 
	C157.440506,207.631699 156.177139,207.388336 155.188248,208.753906 
	C152.183044,212.903748 148.447952,216.401306 144.701279,219.995804 
	C157.071930,227.181137 165.410294,224.568329 172.560944,212.783432 
	C168.154770,211.397629 163.759033,210.015091 158.716217,208.342728 
M47.041698,141.437027 
	C41.222569,153.051636 44.555599,163.892792 55.430885,168.436554 
	C56.729683,163.806412 57.648312,159.070740 59.607059,154.653061 
	C60.076221,153.594925 60.553009,152.382919 59.463276,151.426117 
	C55.519650,147.963577 51.531845,144.551361 47.041698,141.437027 
M171.512115,48.770756 
	C162.036407,38.618900 154.681839,37.176319 144.926361,43.774609 
	C151.128723,50.097828 155.602798,60.097145 167.331085,52.801197 
	C168.402847,52.134457 169.884384,52.156956 171.135925,51.740162 
	C172.413437,51.314720 172.371704,50.370083 171.512115,48.770756 
M102.833595,217.726349 
	C110.938751,225.045471 120.093819,225.884354 127.144463,219.797211 
	C123.695465,216.462112 120.153862,213.219833 117.351837,209.302383 
	C116.650757,208.322205 115.780701,207.580124 114.408485,208.026230 
	C109.329941,209.677200 104.247223,211.315323 98.732864,213.098358 
	C100.188179,214.787689 101.258537,216.030151 102.833595,217.726349 
M138.348312,167.584534 
	C138.690536,162.615646 139.998932,157.469513 135.778351,152.984772 
	C131.791260,159.901321 132.773941,166.351868 135.765640,173.313782 
	C137.477539,171.581558 137.567184,169.867004 138.348312,167.584534 
M149.120071,103.702576 
	C146.789459,106.626060 145.409622,109.751083 146.811432,113.727386 
	C154.641281,110.134300 155.329300,103.017372 157.304977,95.463669 
	C153.474945,97.800621 151.610199,100.552460 149.120071,103.702576 
M175.648315,132.914581 
	C176.176636,132.622299 177.144608,132.224289 176.419861,131.611160 
	C172.323624,128.145737 161.572861,128.649719 157.469833,132.406860 
	C163.187653,136.166275 169.105270,134.998596 175.648315,132.914581 
M115.156158,166.787781 
	C115.145523,166.952377 115.103729,167.122818 115.133209,167.279892 
	C115.161453,167.430344 115.313759,167.696198 115.326363,167.691330 
	C121.216866,165.411057 126.436852,156.008514 124.858253,150.556747 
	C117.870140,153.469772 116.938019,160.096085 115.156158,166.787781 
M110.455780,150.006577 
	C113.777695,148.683502 116.386185,146.729340 117.023651,142.866470 
	C110.774811,141.962326 103.188400,146.604645 101.258186,152.513138 
	C104.385422,152.690079 107.007439,151.196716 110.455780,150.006577 
M167.672195,147.761856 
	C163.916458,145.076172 160.732758,140.857162 155.060745,142.882935 
	C157.455261,148.848785 163.903900,152.552933 170.933914,152.114594 
	C170.961319,150.139740 169.204529,149.437973 167.672195,147.761856 
M153.726181,156.854523 
	C152.570633,153.638519 150.255402,151.804718 146.580032,150.798584 
	C145.398682,159.276733 151.714813,162.860046 156.576355,168.690536 
	C156.905914,163.818802 155.151581,160.750336 153.726181,156.854523 
M136.263046,110.674782 
	C140.749054,104.108498 138.765076,97.693649 135.998901,91.291573 
	C133.328247,97.735237 131.415222,104.171967 136.263046,110.674782 
M162.258484,113.702370 
	C158.446701,114.982254 156.034714,117.656921 154.324875,121.452202 
	C162.908356,122.808823 166.825348,116.690002 172.271805,111.591255 
	C168.325516,110.974579 165.739944,112.702400 162.258484,113.702370 
M117.406792,105.065536 
	C118.885185,108.766212 120.516113,112.307060 125.249527,112.789375 
	C125.915977,106.569389 121.931648,100.124977 115.336891,96.686378 
	C115.020500,99.528076 116.428604,101.859856 117.406792,105.065536 
M107.194824,129.194229 
	C102.995934,129.329575 98.782433,129.408554 94.866142,132.084717 
	C103.342247,135.979416 110.074081,135.757507 113.808655,131.641556 
	C112.188698,130.090637 110.285759,129.228149 107.194824,129.194229 
M107.640213,112.926033 
	C105.465675,112.542412 103.497887,110.779312 101.028885,111.833786 
	C104.965439,118.825340 111.850517,122.567375 117.041397,120.595215 
	C115.753441,116.231293 112.187050,114.544182 107.640213,112.926033 
M85.201057,51.594280 
	C91.327049,51.471676 92.382500,45.599251 95.779350,42.351822 
	C89.556084,44.297615 83.715935,46.815052 78.693481,52.255714 
	C81.195396,51.989780 82.821281,51.816963 85.201057,51.594280 
M219.951370,87.391258 
	C221.841537,88.833000 223.731720,90.274734 225.980774,91.990227 
	C223.888550,85.053154 220.573059,79.415802 215.644943,74.690239 
	C217.292465,78.692207 214.806549,83.894112 219.951370,87.391258 
M38.647083,141.151093 
	C42.533363,134.926926 43.080448,128.776123 37.580025,121.926567 
	C37.382675,128.962601 36.041256,135.179932 38.647083,141.151093 
M138.979828,226.817841 
	C133.835815,223.897461 130.771072,228.809616 126.664459,229.983887 
	C132.970840,230.980026 139.193390,231.152847 145.529785,229.449585 
	C143.564392,228.673569 141.598984,227.897552 138.979828,226.817841 
M180.420990,220.431519 
	C185.241379,218.320938 189.755478,215.765961 193.700943,211.610474 
	C186.228516,211.968231 179.797913,213.166046 177.324188,221.441147 
	C178.306442,221.119736 179.059494,220.873337 180.420990,220.431519 
M55.165066,188.477631 
	C55.553001,188.741623 55.940933,189.005600 56.328861,189.269592 
	C56.402615,189.121857 56.554008,188.965668 56.538975,188.827606 
	C55.812542,182.157471 54.823967,175.643250 46.632862,173.326950 
	C48.214027,179.018311 51.086380,183.753799 55.165066,188.477631 
M223.295105,178.860336 
	C224.214462,176.709396 225.133820,174.558456 226.535645,171.278778 
	C216.010101,180.716782 216.010101,180.716782 216.350586,188.735184 
	C219.475815,186.246429 221.054672,182.756973 223.295105,178.860336 
M55.438164,75.079048 
	C49.976616,81.762566 47.847641,85.877060 47.344189,90.721581 
	C55.641987,85.393478 56.515675,83.745766 55.438164,75.079048 
M140.088715,36.730858 
	C141.894150,35.945454 143.699570,35.160049 145.505005,34.374641 
	C138.986526,33.171768 132.838028,32.786575 126.208061,33.779961 
	C134.150620,38.216419 134.730972,38.351048 140.088715,36.730858 
M184.145676,45.409340 
	C181.949051,44.433155 179.752441,43.456970 176.793701,42.142094 
	C182.507660,51.596210 183.467728,52.137211 192.823761,51.669769 
	C190.514938,49.063251 187.640182,47.419575 184.145676,45.409340 
M234.843094,135.101151 
	C234.843094,131.201492 234.843094,127.301826 234.843094,122.489380 
	C228.401871,129.222366 229.838272,135.126007 233.755753,141.120163 
	C235.073090,139.587296 234.559921,137.687927 234.843094,135.101151 
M89.128410,219.252808 
	C90.922302,220.048096 92.633408,221.181793 94.767113,221.047638 
	C91.839806,213.696762 86.376999,211.527069 79.008217,212.085556 
	C81.873528,215.249847 85.146744,217.135605 89.128410,219.252808 
z"/>
</svg>